<svg
  xmlns="http://www.w3.org/2000/svg"
  xmlns:xlink="http://www.w3.org/1999/xlink"
  viewBox="125 45 1240 1350"
  preserveAspectRatio="xMidYMid meet"
  version="1.0"
>
  <defs>
    <clipPath id="e03507b4ad">
      <path
        d="M 134.386719 101 L 697 101 L 697 780 L 134.386719 780 Z M 134.386719 101"
        clip-rule="nonzero"
      />
    </clipPath>
    <clipPath id="f2dd996363">
      <path
        d="M 222 283 L 1350.136719 283 L 1350.136719 1381 L 222 1381 Z M 222 283"
        clip-rule="nonzero"
      />
    </clipPath>
  </defs>
  <path
    fill="currentColor"
    d="M 893.375 65.238281 C 826.605469 88.949219 768.554688 127.105469 696.875 193.875 C 638.554688 248.109375 590.859375 310.519531 562.246094 369.660156 C 526.269531 444.0625 501.195312 549.808594 501.195312 628.023438 L 501.195312 656.097656 L 551.070312 657.730469 C 594.402344 659.367188 620.566406 662.363281 653 669.175781 L 661.449219 671.085938 L 663.082031 649.828125 C 671.53125 535.363281 683.25 481.128906 711.320312 423.894531 C 759.832031 324.148438 874.84375 241.023438 998.027344 216.769531 L 1021.464844 211.863281 L 1020.105469 203.414062 C 1011.929688 153.8125 996.667969 122.472656 964.78125 88.949219 C 949.789062 73.414062 926.351562 54.335938 923.082031 54.882812 C 922.535156 54.882812 909.183594 59.515625 893.375 65.238281 Z M 893.375 65.238281"
  />
  <g clip-path="url(#e03507b4ad)">
    <path
      fill="currentColor"
      d="M 452.957031 104.757812 C 446.6875 106.664062 437.421875 111.023438 431.972656 114.296875 C 421.886719 120.835938 397.632812 146.183594 397.632812 150.542969 C 397.632812 151.90625 407.445312 166.078125 419.707031 181.882812 C 431.699219 197.964844 442.328125 212.136719 442.875 213.769531 C 443.417969 215.40625 439.332031 219.765625 433.878906 223.582031 C 428.15625 227.398438 411.804688 241.84375 397.359375 255.742188 L 370.925781 281.085938 L 356.207031 262.554688 C 348.03125 252.472656 336.039062 236.9375 329.5 228.214844 C 322.6875 219.765625 315.328125 212.679688 313.148438 212.679688 C 304.152344 212.679688 275.808594 229.03125 264.90625 240.207031 C 251.828125 254.105469 240.652344 275.089844 238.199219 290.625 L 236.5625 301.253906 L 275.535156 321.421875 C 297.066406 332.597656 314.78125 341.863281 315.054688 342.136719 C 315.601562 342.40625 310.695312 351.671875 304.152344 362.847656 C 297.886719 374.023438 288.347656 392.554688 283.167969 404.273438 C 277.988281 415.71875 272.8125 424.984375 271.722656 425.257812 C 270.632812 425.257812 249.375 415.445312 224.574219 403.726562 L 179.605469 382.199219 L 166.523438 393.917969 C 150.988281 408.089844 140.359375 426.621094 136 447.878906 C 133 462.867188 134.363281 489.03125 138.453125 495.84375 C 139.542969 497.480469 163.523438 502.113281 193.503906 506.203125 C 222.664062 510.015625 246.921875 513.558594 247.464844 514.105469 C 248.011719 514.648438 246.375 526.367188 243.921875 540.269531 C 237.109375 581.421875 233.292969 638.925781 235.472656 677.355469 C 237.109375 713.054688 243.648438 770.015625 246.648438 778.191406 C 248.011719 781.460938 251.828125 778.738281 263.273438 765.925781 C 302.519531 722.59375 365.203125 683.078125 424.339844 664.816406 L 443.964844 658.546875 L 443.964844 629.113281 C 443.964844 503.476562 488.113281 376.203125 570.148438 265.824219 C 591.40625 236.9375 650.273438 175.070312 681.070312 149.179688 L 696.058594 136.371094 L 669.894531 136.371094 C 626.835938 136.371094 576.417969 147.542969 534.171875 166.621094 C 524.632812 170.984375 516.1875 173.980469 515.367188 173.433594 C 514.824219 172.617188 510.460938 156.539062 505.558594 137.1875 L 496.835938 102.304688 L 480.484375 101.757812 C 471.761719 101.484375 459.226562 102.847656 452.957031 104.757812 Z M 452.957031 104.757812"
    />
  </g>
  <g clip-path="url(#f2dd996363)">
    <path
      fill="currentColor"
      d="M 960.691406 287.898438 C 903.730469 299.074219 849.222656 327.691406 810.25 366.390625 C 746.75 430.164062 724.675781 500.207031 713.5 673.265625 C 711.867188 699.429688 710.230469 721.230469 709.957031 721.503906 C 709.414062 722.050781 692.242188 719.871094 671.257812 716.871094 C 572.875 703.246094 485.933594 702.699219 437.152344 715.234375 C 390.273438 727.5 349.121094 749.847656 314.78125 782.28125 C 217.757812 873.851562 194.59375 1022.109375 258.914062 1141.480469 C 317.507812 1251.039062 446.6875 1325.441406 633.375 1357.058594 C 702.871094 1368.777344 771.007812 1374.5 900.460938 1379.40625 C 1010.835938 1383.492188 1249.035156 1379.132812 1255.300781 1372.863281 C 1258.027344 1369.867188 1279.011719 1279.113281 1292.914062 1210.160156 C 1315.53125 1098.695312 1336.246094 961.335938 1346.601562 857.226562 C 1351.78125 804.082031 1350.960938 682.53125 1345.238281 640.5625 C 1328.339844 519.011719 1292.09375 433.980469 1231.589844 373.203125 C 1186.078125 327.417969 1133.75 299.621094 1070.523438 287.628906 C 1043.269531 282.722656 986.855469 282.722656 960.691406 287.898438 Z M 960.691406 287.898438"
    />
  </g>
</svg>